<svg xmlns="http://www.w3.org/2000/svg" width="256" height="256" viewBox="0 0 256 256">
  <defs>
    <linearGradient id="g" x1="0" x2="1">
      <stop offset="0%" stop-color="#0f172a" stop-opacity="0.95" />
      <stop offset="100%" stop-color="#1e3a8a" stop-opacity="0.95" />
    </linearGradient>
  </defs>
  <rect width="100%" height="100%" fill="none" />
  <g transform="translate(16,24)">
    <g>
      <rect x="0" y="48" width="64" height="56" rx="6" fill="#083344" />
      <path d="M0 48 L32 24 L64 48" fill="#083344" />
    </g>
    <g transform="translate(80,12)">
      <text x="0" y="36" font-family="Segoe UI, Roboto, Arial" font-size="28" font-weight="700" fill="url(#g)">STUDENT</text>
      <text x="0" y="76" font-family="Segoe UI, Roboto, Arial" font-size="48" font-weight="800" fill="url(#g)">HUB</text>
    </g>
  </g>
</svg>
<svg xmlns="http://www.w3.org/2000/svg" width="512" height="512" viewBox="0 0 512 512">
  <defs>
    <linearGradient id="g" x1="0" x2="1" y1="0" y2="1">
      <stop offset="0" stop-color="#0ea5e9"/>
      <stop offset="1" stop-color="#7c3aed"/>
    </linearGradient>
  </defs>
  <rect width="100%" height="100%" rx="24" fill="none"/>
  <g transform="translate(64,72)">
    <path d="M0 64c48-34 160-64 224-64s176 30 224 64v168c-48 34-160 64-224 64S48 266 0 232V64z" fill="#fff" opacity="0.06"/>
    <g transform="translate(0,0)">
      <rect x="0" y="0" width="160" height="112" rx="8" fill="url(#g)" />
      <path d="M8 16h144v6H8zM8 34h144v6H8zM8 52h144v6H8z" fill="#fff" opacity="0.9"/>
    </g>
    <g transform="translate(200,12)">
      <text x="0" y="40" font-family="Segoe UI, Roboto, Arial" font-size="36" fill="#0f172a" font-weight="700">Student</text>
      <text x="0" y="82" font-family="Segoe UI, Roboto, Arial" font-size="42" fill="#6d28d9" font-weight="800">HUB</text>
    </g>
  </g>
</svg>
